<svg width="160" height="24" viewBox="0 0 160 24" fill="none" xmlns="http://www.w3.org/2000/svg">
<g clip-path="url(#clip0_1124_7597)">
<path d="M23.3632 8.58405L15.9852 7.45705L12.6782 0.413055C12.4312 -0.112945 11.5682 -0.112945 11.3211 0.413055L8.01515 7.45705L0.637149 8.58405C0.0311492 8.67705 -0.210851 9.41405 0.214149 9.84905L5.57415 15.3431L4.30715 23.1101C4.20615 23.7271 4.86515 24.1901 5.41015 23.8871L12.0002 20.2451L18.5902 23.8881C19.1302 24.1881 19.7952 23.7341 19.6932 23.1111L18.4262 15.3441L23.7861 9.85005C24.2112 9.41405 23.9682 8.67705 23.3632 8.58405Z" fill="#FFC107"/>
<path d="M23.3632 8.58405L15.9852 7.45705L12.6782 0.413055C12.4312 -0.112945 11.5682 -0.112945 11.3211 0.413055L8.01515 7.45705L0.637149 8.58405C0.0311492 8.67705 -0.210851 9.41405 0.214149 9.84905L5.57415 15.3431L4.30715 23.1101C4.20615 23.7271 4.86515 24.1901 5.41015 23.8871L12.0002 20.2451L18.5902 23.8881C19.1302 24.1881 19.7952 23.7341 19.6932 23.1111L18.4262 15.3441L23.7861 9.85005C24.2112 9.41405 23.9682 8.67705 23.3632 8.58405Z" fill="url(#paint0_linear_1124_7597)"/>
</g>
<g clip-path="url(#clip1_1124_7597)">
<path d="M57.3632 8.58405L49.9852 7.45705L46.6782 0.413055C46.4312 -0.112945 45.5682 -0.112945 45.3211 0.413055L42.0152 7.45705L34.6371 8.58405C34.0311 8.67705 33.7891 9.41405 34.2141 9.84905L39.5741 15.3431L38.3071 23.1101C38.2062 23.7271 38.8651 24.1901 39.4101 23.8871L46.0002 20.2451L52.5902 23.8881C53.1302 24.1881 53.7952 23.7341 53.6932 23.1111L52.4262 15.3441L57.7861 9.85005C58.2112 9.41405 57.9682 8.67705 57.3632 8.58405Z" fill="#FFC107"/>
<path d="M57.3632 8.58405L49.9852 7.45705L46.6782 0.413055C46.4312 -0.112945 45.5682 -0.112945 45.3211 0.413055L42.0152 7.45705L34.6371 8.58405C34.0311 8.67705 33.7891 9.41405 34.2141 9.84905L39.5741 15.3431L38.3071 23.1101C38.2062 23.7271 38.8651 24.1901 39.4101 23.8871L46.0002 20.2451L52.5902 23.8881C53.1302 24.1881 53.7952 23.7341 53.6932 23.1111L52.4262 15.3441L57.7861 9.85005C58.2112 9.41405 57.9682 8.67705 57.3632 8.58405Z" fill="url(#paint1_linear_1124_7597)"/>
</g>
<g clip-path="url(#clip2_1124_7597)">
<path d="M91.3632 8.58405L83.9852 7.45705L80.6782 0.413055C80.4312 -0.112945 79.5682 -0.112945 79.3211 0.413055L76.0152 7.45705L68.6371 8.58405C68.0311 8.67705 67.7891 9.41405 68.2141 9.84905L73.5741 15.3431L72.3071 23.1101C72.2062 23.7271 72.8651 24.1901 73.4101 23.8871L80.0002 20.2451L86.5902 23.8881C87.1302 24.1881 87.7952 23.7341 87.6932 23.1111L86.4262 15.3441L91.7861 9.85005C92.2112 9.41405 91.9682 8.67705 91.3632 8.58405Z" fill="#FFC107"/>
<path d="M91.3632 8.58405L83.9852 7.45705L80.6782 0.413055C80.4312 -0.112945 79.5682 -0.112945 79.3211 0.413055L76.0152 7.45705L68.6371 8.58405C68.0311 8.67705 67.7891 9.41405 68.2141 9.84905L73.5741 15.3431L72.3071 23.1101C72.2062 23.7271 72.8651 24.1901 73.4101 23.8871L80.0002 20.2451L86.5902 23.8881C87.1302 24.1881 87.7952 23.7341 87.6932 23.1111L86.4262 15.3441L91.7861 9.85005C92.2112 9.41405 91.9682 8.67705 91.3632 8.58405Z" fill="url(#paint2_linear_1124_7597)"/>
</g>
<g clip-path="url(#clip3_1124_7597)">
<path d="M125.363 8.58405L117.985 7.45705L114.678 0.413055C114.431 -0.112945 113.568 -0.112945 113.321 0.413055L110.015 7.45705L102.637 8.58405C102.031 8.67705 101.789 9.41405 102.214 9.84905L107.574 15.3431L106.307 23.1101C106.206 23.7271 106.865 24.1901 107.41 23.8871L114 20.2451L120.59 23.8881C121.13 24.1881 121.795 23.7341 121.693 23.1111L120.426 15.3441L125.786 9.85005C126.211 9.41405 125.968 8.67705 125.363 8.58405Z" fill="#FFC107"/>
<path d="M125.363 8.58405L117.985 7.45705L114.678 0.413055C114.431 -0.112945 113.568 -0.112945 113.321 0.413055L110.015 7.45705L102.637 8.58405C102.031 8.67705 101.789 9.41405 102.214 9.84905L107.574 15.3431L106.307 23.1101C106.206 23.7271 106.865 24.1901 107.41 23.8871L114 20.2451L120.59 23.8881C121.13 24.1881 121.795 23.7341 121.693 23.1111L120.426 15.3441L125.786 9.85005C126.211 9.41405 125.968 8.67705 125.363 8.58405Z" fill="url(#paint3_linear_1124_7597)"/>
</g>
<g clip-path="url(#clip4_1124_7597)">
<path d="M159.363 8.58405L151.985 7.45705L148.678 0.413055C148.431 -0.112945 147.568 -0.112945 147.321 0.413055L144.015 7.45705L136.637 8.58405C136.031 8.67705 135.789 9.41405 136.214 9.84905L141.574 15.3431L140.307 23.1101C140.206 23.7271 140.865 24.1901 141.41 23.8871L148 20.2451L154.59 23.8881C155.13 24.1881 155.795 23.7341 155.693 23.1111L154.426 15.3441L159.786 9.85005C160.211 9.41405 159.968 8.67705 159.363 8.58405Z" fill="#FFC107"/>
<path d="M159.363 8.58405L151.985 7.45705L148.678 0.413055C148.431 -0.112945 147.568 -0.112945 147.321 0.413055L144.015 7.45705L136.637 8.58405C136.031 8.67705 135.789 9.41405 136.214 9.84905L141.574 15.3431L140.307 23.1101C140.206 23.7271 140.865 24.1901 141.41 23.8871L148 20.2451L154.59 23.8881C155.13 24.1881 155.795 23.7341 155.693 23.1111L154.426 15.3441L159.786 9.85005C160.211 9.41405 159.968 8.67705 159.363 8.58405Z" fill="url(#paint4_linear_1124_7597)"/>
</g>
<defs>
<linearGradient id="paint0_linear_1124_7597" x1="1.0875" y1="0.0185559" x2="24.419" y2="5.74382" gradientUnits="userSpaceOnUse">
<stop stop-color="#2B84FF"/>
<stop offset="1" stop-color="#125EC7"/>
</linearGradient>
<linearGradient id="paint1_linear_1124_7597" x1="35.0875" y1="0.0185559" x2="58.419" y2="5.74382" gradientUnits="userSpaceOnUse">
<stop stop-color="#2B84FF"/>
<stop offset="1" stop-color="#125EC7"/>
</linearGradient>
<linearGradient id="paint2_linear_1124_7597" x1="69.0875" y1="0.0185559" x2="92.419" y2="5.74382" gradientUnits="userSpaceOnUse">
<stop stop-color="#2B84FF"/>
<stop offset="1" stop-color="#125EC7"/>
</linearGradient>
<linearGradient id="paint3_linear_1124_7597" x1="103.088" y1="0.0185559" x2="126.419" y2="5.74382" gradientUnits="userSpaceOnUse">
<stop stop-color="#2B84FF"/>
<stop offset="1" stop-color="#125EC7"/>
</linearGradient>
<linearGradient id="paint4_linear_1124_7597" x1="137.088" y1="0.0185559" x2="160.419" y2="5.74382" gradientUnits="userSpaceOnUse">
<stop stop-color="#2B84FF"/>
<stop offset="1" stop-color="#125EC7"/>
</linearGradient>
<clipPath id="clip0_1124_7597">
<rect width="24" height="24" fill="white"/>
</clipPath>
<clipPath id="clip1_1124_7597">
<rect width="24" height="24" fill="white" transform="translate(34)"/>
</clipPath>
<clipPath id="clip2_1124_7597">
<rect width="24" height="24" fill="white" transform="translate(68)"/>
</clipPath>
<clipPath id="clip3_1124_7597">
<rect width="24" height="24" fill="white" transform="translate(102)"/>
</clipPath>
<clipPath id="clip4_1124_7597">
<rect width="24" height="24" fill="white" transform="translate(136)"/>
</clipPath>
</defs>
</svg>
