<svg width="24" height="24" viewBox="0 0 24 24" fill="none" xmlns="http://www.w3.org/2000/svg">
<path d="M12.8332 3.0381C13.4951 3.09889 14.0175 3.59434 14.212 4.2299V4.2299C14.3809 4.78203 14.8073 5.20903 15.3217 5.47132C15.5516 5.58856 15.7745 5.7176 15.9896 5.85763C16.4741 6.17303 17.0578 6.32902 17.6212 6.19911V6.19911C18.2685 6.04985 18.9584 6.25383 19.343 6.79546C19.6639 7.24752 19.9442 7.73051 20.1785 8.23907C20.4568 8.84347 20.2882 9.54432 19.8345 10.0311V10.0311C19.4404 10.4539 19.2831 11.037 19.3131 11.6142C19.3197 11.7419 19.3231 11.8705 19.3231 11.9998C19.3231 12.1292 19.3197 12.2577 19.3131 12.3854C19.2831 12.9626 19.4405 13.5458 19.8346 13.9686V13.9686C20.2883 14.4554 20.4569 15.1563 20.1785 15.7607C19.9444 16.2692 19.6642 16.7521 19.3433 17.2041C18.9587 17.7458 18.2686 17.9499 17.6213 17.8006V17.8006C17.0579 17.6706 16.4741 17.8267 15.9895 18.1421C15.7745 18.2821 15.5517 18.4111 15.3218 18.5283C14.8073 18.7906 14.3809 19.2177 14.2119 19.7699V19.7699C14.0174 20.4056 13.4949 20.9012 12.8329 20.9619C12.5585 20.9871 12.2805 21 11.9995 21C11.7185 21 11.4405 20.9871 11.1661 20.9619C10.5042 20.9011 9.98171 20.4056 9.78721 19.77V19.77C9.61823 19.2178 9.1918 18.7908 8.67733 18.5284C8.44734 18.4112 8.22438 18.2821 8.00923 18.1421C7.52472 17.8267 6.94103 17.6707 6.3777 17.8006V17.8006C5.73039 17.9499 5.04043 17.7459 4.65587 17.2042C4.33492 16.7521 4.05467 16.2691 3.82045 15.7605C3.54214 15.1562 3.71075 14.4555 4.16438 13.9688V13.9688C4.55841 13.546 4.7157 12.9629 4.68573 12.3858C4.6791 12.258 4.67574 12.1293 4.67574 11.9998C4.67574 11.8703 4.6791 11.7416 4.68574 11.6138C4.71571 11.0367 4.55843 10.4537 4.16443 10.0309V10.0309C3.71082 9.54425 3.54223 8.84354 3.82054 8.23925C4.05482 7.73059 4.33515 7.24751 4.65619 6.79536C5.04072 6.2538 5.73058 6.04983 6.3778 6.19908V6.19908C6.94107 6.32898 7.52469 6.17301 8.00915 5.85765C8.22437 5.71754 8.44741 5.58844 8.67748 5.47115C9.19186 5.20889 9.61821 4.78191 9.78716 4.2298V4.2298C9.98162 3.5943 10.504 3.0989 11.1658 3.03811C11.4403 3.01289 11.7184 3 11.9995 3C12.2806 3 12.5587 3.01289 12.8332 3.0381Z" stroke="#4F5974" stroke-width="1.3" stroke-linejoin="round"/>
<circle cx="11.9999" cy="12" r="2.39441" stroke="#4F5974" stroke-width="1.3"/>
</svg>
