<svg width="22" height="22" viewBox="0 0 22 22" fill="none" xmlns="http://www.w3.org/2000/svg">
<g clip-path="url(#clip0_695_7532)">
<path d="M16.3535 5.46338L15.2059 18.5406H6.79262L5.64526 5.46338L4.19141 5.59082L5.35972 18.9052C5.42121 19.5189 5.95368 20.0001 6.57226 20.0001H15.4263C16.0447 20.0001 16.5773 19.5192 16.6398 18.8965L17.8074 5.59082L16.3535 5.46338Z" fill="#4F5974"/>
<path d="M13.675 2H8.32365C7.65301 2 7.10742 2.54559 7.10742 3.21623V5.52705H8.56686V3.45944H13.4317V5.52702H14.8912V3.2162C14.8912 2.54559 14.3456 2 13.675 2Z" fill="#4F5974"/>
<path d="M18.7836 4.79736H3.21607C2.813 4.79736 2.48633 5.12404 2.48633 5.5271C2.48633 5.93017 2.813 6.25684 3.21607 6.25684H18.7836C19.1867 6.25684 19.5134 5.93017 19.5134 5.5271C19.5134 5.12404 19.1867 4.79736 18.7836 4.79736Z" fill="#4F5974"/>
</g>
<defs>
<clipPath id="clip0_695_7532">
<rect width="18" height="18" fill="white" transform="translate(2 2)"/>
</clipPath>
</defs>
</svg>
