<svg width="52" height="52" viewBox="0 0 52 52" fill="none" xmlns="http://www.w3.org/2000/svg">
<path d="M43.9442 31.7038C44.714 27.3913 43.9068 22.9459 41.6699 19.1794C39.4331 15.4129 35.9159 12.5768 31.7608 11.1892M13.8795 42.155C17.2294 45.123 21.5532 46.7564 26.0287 46.7446C30.5042 46.7328 34.8193 45.0766 38.1535 42.091M7.99556 31.5805C7.26786 27.3359 8.06484 22.9707 10.2455 19.2571C12.4262 15.5435 15.85 12.7209 19.9113 11.2885M31.7083 10.9832C31.7083 14.1465 29.1439 16.7109 25.9806 16.7109C22.8173 16.7109 20.2529 14.1465 20.2529 10.9832C20.2529 7.81988 22.8173 5.25549 25.9806 5.25549C29.1439 5.25549 31.7083 7.81988 31.7083 10.9832ZM15.8919 37.0727C15.8919 40.2371 13.3266 42.8024 10.1622 42.8024C6.99786 42.8024 4.43262 40.2371 4.43262 37.0727C4.43262 33.9084 6.99786 31.3431 10.1622 31.3431C13.3266 31.3431 15.8919 33.9084 15.8919 37.0727ZM46.9751 37.0727C46.9751 40.2371 44.4099 42.8024 41.2455 42.8024C38.0811 42.8024 35.5159 40.2371 35.5159 37.0727C35.5159 33.9084 38.0811 31.3431 41.2455 31.3431C44.4099 31.3431 46.9751 33.9084 46.9751 37.0727Z" stroke="#4F5974" stroke-width="1.8" stroke-linecap="round"/>
<path d="M43.9442 31.7038C44.714 27.3913 43.9068 22.9459 41.6699 19.1794C39.4331 15.4129 35.9159 12.5768 31.7608 11.1892M13.8795 42.155C17.2294 45.123 21.5532 46.7564 26.0287 46.7446C30.5042 46.7328 34.8193 45.0766 38.1535 42.091M7.99556 31.5805C7.26786 27.3359 8.06484 22.9707 10.2455 19.2571C12.4262 15.5435 15.85 12.7209 19.9113 11.2885M31.7083 10.9832C31.7083 14.1465 29.1439 16.7109 25.9806 16.7109C22.8173 16.7109 20.2529 14.1465 20.2529 10.9832C20.2529 7.81988 22.8173 5.25549 25.9806 5.25549C29.1439 5.25549 31.7083 7.81988 31.7083 10.9832ZM15.8919 37.0727C15.8919 40.2371 13.3266 42.8024 10.1622 42.8024C6.99786 42.8024 4.43262 40.2371 4.43262 37.0727C4.43262 33.9084 6.99786 31.3431 10.1622 31.3431C13.3266 31.3431 15.8919 33.9084 15.8919 37.0727ZM46.9751 37.0727C46.9751 40.2371 44.4099 42.8024 41.2455 42.8024C38.0811 42.8024 35.5159 40.2371 35.5159 37.0727C35.5159 33.9084 38.0811 31.3431 41.2455 31.3431C44.4099 31.3431 46.9751 33.9084 46.9751 37.0727Z" stroke="url(#paint0_linear_581_6782)" stroke-width="1.8" stroke-linecap="round"/>
<defs>
<linearGradient id="paint0_linear_581_6782" x1="3.99951" y1="26" x2="46.9995" y2="29" gradientUnits="userSpaceOnUse">
<stop stop-color="#2980F9"/>
<stop offset="1" stop-color="#6B5FF8"/>
</linearGradient>
</defs>
</svg>
