<svg width="22" height="22" viewBox="0 0 22 22" fill="none" xmlns="http://www.w3.org/2000/svg">
<path fill-rule="evenodd" clip-rule="evenodd" d="M14.8124 8.26224C14.8124 8.14374 14.7651 8.03014 14.6809 7.94669L11.312 4.5778C11.2314 4.49186 11.1188 4.44312 11.0009 4.44312C10.8831 4.44312 10.7705 4.49186 10.6898 4.5778L7.32092 7.94669C7.23678 8.03014 7.18945 8.14374 7.18945 8.26224C7.18945 8.38075 7.23678 8.49435 7.32092 8.5778L7.4987 8.75558C7.58232 8.84238 7.69818 8.89066 7.8187 8.88891H14.1831C14.3037 8.89066 14.4195 8.84238 14.5031 8.75558L14.6809 8.5778C14.7651 8.49435 14.8124 8.38075 14.8124 8.26224ZM7.18945 13.0711C7.18945 13.1896 7.23678 13.3032 7.32092 13.3867L10.6898 16.7556C10.7705 16.8415 10.8831 16.8903 11.0009 16.8903C11.1188 16.8903 11.2314 16.8415 11.312 16.7556L14.6809 13.3867C14.7651 13.3032 14.8124 13.1896 14.8124 13.0711C14.8124 12.9526 14.7651 12.839 14.6809 12.7556L14.5031 12.5778C14.4195 12.491 14.3037 12.4427 14.1831 12.4445H7.8187C7.69818 12.4427 7.58232 12.491 7.4987 12.5778L7.32092 12.7556C7.23678 12.839 7.18945 12.9526 7.18945 13.0711Z" fill="#CDD6E8"/>
</svg>
