<svg width="50" height="50" viewBox="0 0 50 50" fill="none" xmlns="http://www.w3.org/2000/svg">
<path d="M18.3332 41.6667L18.1564 42.9041L18.3988 42.9388L18.6363 42.8794L18.3332 41.6667ZM31.6665 8.33337L31.8433 7.09594L31.6776 7.07226L31.5115 7.09303L31.6665 8.33337ZM42.0832 20.8334C42.0832 21.5237 42.6428 22.0834 43.3332 22.0834C44.0235 22.0834 44.5832 21.5237 44.5832 20.8334H42.0832ZM30.4165 20C30.4165 20.6904 30.9761 21.25 31.6665 21.25C32.3569 21.25 32.9165 20.6904 32.9165 20H30.4165ZM25.303 41.2127C25.9727 41.0453 26.3799 40.3666 26.2125 39.6969C26.0451 39.0271 25.3664 38.6199 24.6967 38.7874L25.303 41.2127ZM12.3904 40.8177L12.2136 42.0552H12.2136L12.3904 40.8177ZM37.6093 9.18235L37.4325 10.4198L37.6093 9.18235ZM14.276 9.42044L14.0992 10.6579L14.276 9.42044ZM42.5504 37.4495C42.0622 36.9613 41.2708 36.9613 40.7826 37.4495C40.2945 37.9376 40.2945 38.7291 40.7826 39.2173L42.5504 37.4495ZM46.616 45.0506C47.1041 45.5387 47.8956 45.5387 48.3837 45.0506C48.8719 44.5624 48.8719 43.771 48.3837 43.2828L46.616 45.0506ZM14.0992 10.6579L18.1564 11.2375L18.5099 8.7626L14.4528 8.18301L14.0992 10.6579ZM17.0832 10V41.6667H19.5832V10H17.0832ZM18.5099 40.4293L12.5671 39.5803L12.2136 42.0552L18.1564 42.9041L18.5099 40.4293ZM7.9165 34.2181V16.0201H5.4165V34.2181H7.9165ZM31.4897 9.57081L37.4325 10.4198L37.7861 7.94491L31.8433 7.09594L31.4897 9.57081ZM31.5115 7.09303L18.1781 8.75969L18.4882 11.2404L31.8215 9.57372L31.5115 7.09303ZM42.0832 15.782V20.8334H44.5832V15.782H42.0832ZM32.9165 20V8.33337H30.4165V20H32.9165ZM18.6363 42.8794L25.303 41.2127L24.6967 38.7874L18.03 40.454L18.6363 42.8794ZM12.5671 39.5803C11.1704 39.3808 10.2392 39.2454 9.54876 39.0561C8.89232 38.8762 8.61002 38.6863 8.42597 38.4741L6.53734 40.1121C7.16845 40.8397 7.97598 41.2172 8.88785 41.4672C9.76575 41.7078 10.8813 41.8648 12.2136 42.0552L12.5671 39.5803ZM5.4165 34.2181C5.4165 35.5639 5.41418 36.6904 5.52825 37.5935C5.64674 38.5316 5.90623 39.3844 6.53734 40.1121L8.42597 38.4741C8.24193 38.2619 8.09384 37.9555 8.00854 37.2802C7.91883 36.57 7.9165 35.629 7.9165 34.2181H5.4165ZM37.4325 10.4198C38.8293 10.6193 39.7605 10.7547 40.4509 10.944C41.1073 11.1239 41.3897 11.3138 41.5737 11.526L43.4623 9.88802C42.8312 9.16034 42.0237 8.78286 41.1118 8.5329C40.2339 8.29225 39.1184 8.13523 37.7861 7.94491L37.4325 10.4198ZM44.5832 15.782C44.5832 14.4362 44.5855 13.3097 44.4714 12.4065C44.3529 11.4685 44.0934 10.6157 43.4623 9.88802L41.5737 11.526C41.7577 11.7382 41.9058 12.0445 41.9911 12.7198C42.0808 13.4301 42.0832 14.3711 42.0832 15.782H44.5832ZM14.4528 8.18301C12.7199 7.93546 11.289 7.72807 10.1514 7.72603C8.97851 7.72392 7.89539 7.93492 6.99683 8.71424L8.63483 10.6029C8.8856 10.3854 9.26228 10.2244 10.147 10.226C11.067 10.2277 12.2915 10.3996 14.0992 10.6579L14.4528 8.18301ZM7.9165 16.0201C7.9165 14.194 7.91945 12.9575 8.04792 12.0465C8.17146 11.1705 8.38407 10.8204 8.63483 10.6029L6.99683 8.71424C6.09827 9.49356 5.73621 10.536 5.57242 11.6974C5.41356 12.8238 5.4165 14.2697 5.4165 16.0201H7.9165ZM36.6665 38.75C33.675 38.75 31.2498 36.3249 31.2498 33.3334H28.7498C28.7498 37.7056 32.2942 41.25 36.6665 41.25V38.75ZM42.0832 33.3334C42.0832 36.3249 39.658 38.75 36.6665 38.75V41.25C41.0388 41.25 44.5832 37.7056 44.5832 33.3334H42.0832ZM36.6665 27.9167C39.658 27.9167 42.0832 30.3418 42.0832 33.3334H44.5832C44.5832 28.9611 41.0388 25.4167 36.6665 25.4167V27.9167ZM36.6665 25.4167C32.2942 25.4167 28.7498 28.9611 28.7498 33.3334H31.2498C31.2498 30.3418 33.675 27.9167 36.6665 27.9167V25.4167ZM40.7826 39.2173L46.616 45.0506L48.3837 43.2828L42.5504 37.4495L40.7826 39.2173Z" fill="url(#paint0_linear_581_6789)"/>
<path d="M18.3332 41.6667L18.1564 42.9041L18.3988 42.9388L18.6363 42.8794L18.3332 41.6667ZM31.6665 8.33337L31.8433 7.09594L31.6776 7.07226L31.5115 7.09303L31.6665 8.33337ZM42.0832 20.8334C42.0832 21.5237 42.6428 22.0834 43.3332 22.0834C44.0235 22.0834 44.5832 21.5237 44.5832 20.8334H42.0832ZM30.4165 20C30.4165 20.6904 30.9761 21.25 31.6665 21.25C32.3569 21.25 32.9165 20.6904 32.9165 20H30.4165ZM25.303 41.2127C25.9727 41.0453 26.3799 40.3666 26.2125 39.6969C26.0451 39.0271 25.3664 38.6199 24.6967 38.7874L25.303 41.2127ZM12.3904 40.8177L12.2136 42.0552H12.2136L12.3904 40.8177ZM37.6093 9.18235L37.4325 10.4198L37.6093 9.18235ZM14.276 9.42044L14.0992 10.6579L14.276 9.42044ZM42.5504 37.4495C42.0622 36.9613 41.2708 36.9613 40.7826 37.4495C40.2945 37.9376 40.2945 38.7291 40.7826 39.2173L42.5504 37.4495ZM46.616 45.0506C47.1041 45.5387 47.8956 45.5387 48.3837 45.0506C48.8719 44.5624 48.8719 43.771 48.3837 43.2828L46.616 45.0506ZM14.0992 10.6579L18.1564 11.2375L18.5099 8.7626L14.4528 8.18301L14.0992 10.6579ZM17.0832 10V41.6667H19.5832V10H17.0832ZM18.5099 40.4293L12.5671 39.5803L12.2136 42.0552L18.1564 42.9041L18.5099 40.4293ZM7.9165 34.2181V16.0201H5.4165V34.2181H7.9165ZM31.4897 9.57081L37.4325 10.4198L37.7861 7.94491L31.8433 7.09594L31.4897 9.57081ZM31.5115 7.09303L18.1781 8.75969L18.4882 11.2404L31.8215 9.57372L31.5115 7.09303ZM42.0832 15.782V20.8334H44.5832V15.782H42.0832ZM32.9165 20V8.33337H30.4165V20H32.9165ZM18.6363 42.8794L25.303 41.2127L24.6967 38.7874L18.03 40.454L18.6363 42.8794ZM12.5671 39.5803C11.1704 39.3808 10.2392 39.2454 9.54876 39.0561C8.89232 38.8762 8.61002 38.6863 8.42597 38.4741L6.53734 40.1121C7.16845 40.8397 7.97598 41.2172 8.88785 41.4672C9.76575 41.7078 10.8813 41.8648 12.2136 42.0552L12.5671 39.5803ZM5.4165 34.2181C5.4165 35.5639 5.41418 36.6904 5.52825 37.5935C5.64674 38.5316 5.90623 39.3844 6.53734 40.1121L8.42597 38.4741C8.24193 38.2619 8.09384 37.9555 8.00854 37.2802C7.91883 36.57 7.9165 35.629 7.9165 34.2181H5.4165ZM37.4325 10.4198C38.8293 10.6193 39.7605 10.7547 40.4509 10.944C41.1073 11.1239 41.3897 11.3138 41.5737 11.526L43.4623 9.88802C42.8312 9.16034 42.0237 8.78286 41.1118 8.5329C40.2339 8.29225 39.1184 8.13523 37.7861 7.94491L37.4325 10.4198ZM44.5832 15.782C44.5832 14.4362 44.5855 13.3097 44.4714 12.4065C44.3529 11.4685 44.0934 10.6157 43.4623 9.88802L41.5737 11.526C41.7577 11.7382 41.9058 12.0445 41.9911 12.7198C42.0808 13.4301 42.0832 14.3711 42.0832 15.782H44.5832ZM14.4528 8.18301C12.7199 7.93546 11.289 7.72807 10.1514 7.72603C8.97851 7.72392 7.89539 7.93492 6.99683 8.71424L8.63483 10.6029C8.8856 10.3854 9.26228 10.2244 10.147 10.226C11.067 10.2277 12.2915 10.3996 14.0992 10.6579L14.4528 8.18301ZM7.9165 16.0201C7.9165 14.194 7.91945 12.9575 8.04792 12.0465C8.17146 11.1705 8.38407 10.8204 8.63483 10.6029L6.99683 8.71424C6.09827 9.49356 5.73621 10.536 5.57242 11.6974C5.41356 12.8238 5.4165 14.2697 5.4165 16.0201H7.9165ZM36.6665 38.75C33.675 38.75 31.2498 36.3249 31.2498 33.3334H28.7498C28.7498 37.7056 32.2942 41.25 36.6665 41.25V38.75ZM42.0832 33.3334C42.0832 36.3249 39.658 38.75 36.6665 38.75V41.25C41.0388 41.25 44.5832 37.7056 44.5832 33.3334H42.0832ZM36.6665 27.9167C39.658 27.9167 42.0832 30.3418 42.0832 33.3334H44.5832C44.5832 28.9611 41.0388 25.4167 36.6665 25.4167V27.9167ZM36.6665 25.4167C32.2942 25.4167 28.7498 28.9611 28.7498 33.3334H31.2498C31.2498 30.3418 33.675 27.9167 36.6665 27.9167V25.4167ZM40.7826 39.2173L46.616 45.0506L48.3837 43.2828L42.5504 37.4495L40.7826 39.2173Z" fill="url(#paint1_linear_581_6789)"/>
<defs>
<linearGradient id="paint0_linear_581_6789" x1="44.5832" y1="38.3334" x2="44.5832" y2="44.1667" gradientUnits="userSpaceOnUse">
<stop stop-color="#2980F9"/>
<stop offset="1" stop-color="#3528D0"/>
</linearGradient>
<linearGradient id="paint1_linear_581_6789" x1="6.2508" y1="26.25" x2="47.4763" y2="29.4464" gradientUnits="userSpaceOnUse">
<stop stop-color="#2980F9"/>
<stop offset="1" stop-color="#6B5FF8"/>
</linearGradient>
</defs>
</svg>
