<svg width="32" height="32" viewBox="0 0 32 32" fill="none" xmlns="http://www.w3.org/2000/svg">
<path d="M20.2192 23.9999H11.7821C8.87715 23.9999 7.42465 23.9999 6.62803 23.0919C6.5808 23.038 6.53576 22.9823 6.49302 22.9249C5.77204 21.9557 6.07638 20.5354 6.68506 17.6949L7.93712 11.8519C7.97668 11.6673 7.99645 11.5751 8.01573 11.4935C8.85444 7.94421 11.9875 5.41143 15.6337 5.33501C15.7175 5.33325 15.8119 5.33325 16.0007 5.33325C16.1894 5.33325 16.2838 5.33325 16.3676 5.33501C20.0138 5.41143 23.1469 7.94421 23.9856 11.4935C24.0048 11.5751 24.0246 11.6674 24.0642 11.8519L25.3162 17.6949C25.9249 20.5354 26.2293 21.9557 25.5083 22.9249C25.4655 22.9823 25.4205 23.038 25.3733 23.0919C24.5766 23.9999 23.1242 23.9999 20.2192 23.9999Z" stroke="#4F5974" stroke-width="1.73333"/>
<path d="M16 5.33335V2.66669" stroke="#4F5974" stroke-width="1.73333" stroke-linecap="round"/>
<path d="M18.6673 24.5396C18.6673 26.0123 17.4734 27.4669 16.0007 27.4669C14.5279 27.4669 13.334 26.0123 13.334 24.5396" stroke="#4F5974" stroke-width="1.73333" stroke-linecap="round"/>
</svg>
