<svg width="40" height="40" viewBox="0 0 40 40" fill="none" xmlns="http://www.w3.org/2000/svg">
<mask id="path-1-inside-1_581_6781" fill="white">
<path d="M35.908 13.0295H24.476L26.988 6.51602C27.3408 5.60559 27.4276 4.60771 27.2377 3.64651C27.0478 2.6853 26.5896 1.80319 25.92 1.10989C25.5453 0.720775 25.0932 0.421047 24.5954 0.231593C24.0975 0.0421385 23.5658 -0.0324868 23.0373 0.0129164C22.5088 0.0583197 21.9961 0.22266 21.5351 0.494486C21.0741 0.766313 20.6758 1.13909 20.368 1.58684L13.722 11.2316C12.7319 12.6713 11.6281 14.0232 10.422 15.2732L9.58 16.1463C9.11959 15.0563 8.31156 14.1637 7.29154 13.6183C6.27152 13.073 5.10161 12.9081 3.97818 13.1512C2.85476 13.3944 1.84621 14.0309 1.12184 14.9538C0.397459 15.8768 0.00135042 17.03 0 18.22V34.8095C0.00135042 35.9995 0.397459 37.1527 1.12184 38.0756C1.84621 38.9986 2.85476 39.6351 3.97818 39.8783C5.10161 40.1214 6.27152 39.9565 7.29154 39.4111C8.31156 38.8658 9.11959 37.9732 9.58 36.8832L10.678 38.0238C11.281 38.6517 11.9979 39.1496 12.7874 39.4887C13.5769 39.8279 14.4234 40.0017 15.278 40H28.24C29.2556 40.0001 30.2496 39.695 31.1015 39.1216C31.9533 38.5482 32.6267 37.7311 33.04 36.7692L39.4 21.9277C39.798 20.9922 40.0024 19.9806 40 18.9582V17.2764C39.9995 16.151 39.5683 15.0717 38.8011 14.2755C38.034 13.4792 36.9935 13.0311 35.908 13.0295ZM5 37.9139C4.20435 37.9139 3.44129 37.5861 2.87868 37.0028C2.31607 36.4195 2 35.6283 2 34.8033V18.2137C2 17.3888 2.31607 16.5976 2.87868 16.0142C3.44129 15.4309 4.20435 15.1032 5 15.1032C5.79565 15.1032 6.55871 15.4309 7.12132 16.0142C7.68393 16.5976 8 17.3888 8 18.2137V34.8033C8 35.6283 7.68393 36.4195 7.12132 37.0028C6.55871 37.5861 5.79565 37.9139 5 37.9139ZM38 18.9582C38.0011 19.6927 37.8525 20.4191 37.564 21.09L31.2 35.9148C30.9447 36.5099 30.5284 37.0155 30.0017 37.3703C29.4749 37.7251 28.8602 37.9139 28.232 37.9139H15.284C14.6897 37.9163 14.1008 37.7965 13.5514 37.5612C13.0021 37.3259 12.5033 36.9798 12.084 36.5431L10 34.3741V18.643L11.836 16.7393C13.1204 15.408 14.2964 13.9688 15.352 12.4364L22 2.79373C22.138 2.59176 22.3169 2.42346 22.5242 2.30061C22.7315 2.17776 22.9621 2.1033 23.2 2.08246C23.439 2.06267 23.6792 2.09672 23.9043 2.18226C24.1294 2.26781 24.334 2.40284 24.504 2.57807C24.8963 2.98452 25.1648 3.50154 25.2761 4.06487C25.3874 4.6282 25.3366 5.21303 25.13 5.74668L22.07 13.6827C22.0096 13.8399 21.9872 14.0101 22.0049 14.1783C22.0225 14.3465 22.0796 14.5077 22.1711 14.6478C22.2626 14.7879 22.3858 14.9027 22.53 14.9821C22.6741 15.0614 22.8348 15.103 22.998 15.1032H35.906C36.461 15.1032 36.9933 15.3317 37.386 15.7384C37.7786 16.1451 37.9995 16.6968 38 17.2723V18.9582Z"/>
</mask>
<path d="M35.908 13.0295H24.476L26.988 6.51602C27.3408 5.60559 27.4276 4.60771 27.2377 3.64651C27.0478 2.6853 26.5896 1.80319 25.92 1.10989C25.5453 0.720775 25.0932 0.421047 24.5954 0.231593C24.0975 0.0421385 23.5658 -0.0324868 23.0373 0.0129164C22.5088 0.0583197 21.9961 0.22266 21.5351 0.494486C21.0741 0.766313 20.6758 1.13909 20.368 1.58684L13.722 11.2316C12.7319 12.6713 11.6281 14.0232 10.422 15.2732L9.58 16.1463C9.11959 15.0563 8.31156 14.1637 7.29154 13.6183C6.27152 13.073 5.10161 12.9081 3.97818 13.1512C2.85476 13.3944 1.84621 14.0309 1.12184 14.9538C0.397459 15.8768 0.00135042 17.03 0 18.22V34.8095C0.00135042 35.9995 0.397459 37.1527 1.12184 38.0756C1.84621 38.9986 2.85476 39.6351 3.97818 39.8783C5.10161 40.1214 6.27152 39.9565 7.29154 39.4111C8.31156 38.8658 9.11959 37.9732 9.58 36.8832L10.678 38.0238C11.281 38.6517 11.9979 39.1496 12.7874 39.4887C13.5769 39.8279 14.4234 40.0017 15.278 40H28.24C29.2556 40.0001 30.2496 39.695 31.1015 39.1216C31.9533 38.5482 32.6267 37.7311 33.04 36.7692L39.4 21.9277C39.798 20.9922 40.0024 19.9806 40 18.9582V17.2764C39.9995 16.151 39.5683 15.0717 38.8011 14.2755C38.034 13.4792 36.9935 13.0311 35.908 13.0295ZM5 37.9139C4.20435 37.9139 3.44129 37.5861 2.87868 37.0028C2.31607 36.4195 2 35.6283 2 34.8033V18.2137C2 17.3888 2.31607 16.5976 2.87868 16.0142C3.44129 15.4309 4.20435 15.1032 5 15.1032C5.79565 15.1032 6.55871 15.4309 7.12132 16.0142C7.68393 16.5976 8 17.3888 8 18.2137V34.8033C8 35.6283 7.68393 36.4195 7.12132 37.0028C6.55871 37.5861 5.79565 37.9139 5 37.9139ZM38 18.9582C38.0011 19.6927 37.8525 20.4191 37.564 21.09L31.2 35.9148C30.9447 36.5099 30.5284 37.0155 30.0017 37.3703C29.4749 37.7251 28.8602 37.9139 28.232 37.9139H15.284C14.6897 37.9163 14.1008 37.7965 13.5514 37.5612C13.0021 37.3259 12.5033 36.9798 12.084 36.5431L10 34.3741V18.643L11.836 16.7393C13.1204 15.408 14.2964 13.9688 15.352 12.4364L22 2.79373C22.138 2.59176 22.3169 2.42346 22.5242 2.30061C22.7315 2.17776 22.9621 2.1033 23.2 2.08246C23.439 2.06267 23.6792 2.09672 23.9043 2.18226C24.1294 2.26781 24.334 2.40284 24.504 2.57807C24.8963 2.98452 25.1648 3.50154 25.2761 4.06487C25.3874 4.6282 25.3366 5.21303 25.13 5.74668L22.07 13.6827C22.0096 13.8399 21.9872 14.0101 22.0049 14.1783C22.0225 14.3465 22.0796 14.5077 22.1711 14.6478C22.2626 14.7879 22.3858 14.9027 22.53 14.9821C22.6741 15.0614 22.8348 15.103 22.998 15.1032H35.906C36.461 15.1032 36.9933 15.3317 37.386 15.7384C37.7786 16.1451 37.9995 16.6968 38 17.2723V18.9582Z" fill="black"/>
<path d="M24.476 13.0295L4.5716 5.35314L-6.61633 34.3628H24.476V13.0295ZM26.988 6.51602L7.09577 -1.19182L7.08967 -1.17608L7.0836 -1.16034L26.988 6.51602ZM25.92 1.10989L10.5533 15.9078L10.5642 15.919L10.575 15.9302L25.92 1.10989ZM20.368 1.58684L37.9346 13.6916L37.941 13.6824L37.9473 13.6731L20.368 1.58684ZM13.722 11.2316L-3.84461 -0.873167L-3.85025 -0.864985L-3.85588 -0.856798L13.722 11.2316ZM10.422 15.2732L-4.93048 0.460648L-4.93335 0.463623L10.422 15.2732ZM9.58 16.1463L-10.0721 24.4473L2.50213 54.2157L24.9353 30.9559L9.58 16.1463ZM0 18.22L-21.3333 18.1957L-21.3333 18.2079V18.22H0ZM0 34.8095H-21.3333V34.8216L-21.3333 34.8337L0 34.8095ZM9.58 36.8832L24.9488 22.0876L2.51458 -1.21572L-10.0721 28.5822L9.58 36.8832ZM10.678 38.0238L26.065 23.2471L26.0559 23.2376L26.0468 23.2281L10.678 38.0238ZM15.278 40V18.6667H15.2568L15.2357 18.6667L15.278 40ZM28.24 40L28.2429 18.6667H28.24V40ZM33.04 36.7692L52.6408 45.1906L52.6447 45.1813L52.6487 45.1721L33.04 36.7692ZM39.4 21.9277L59.0087 30.3306L59.0197 30.305L59.0306 30.2793L39.4 21.9277ZM40 18.9582H18.6666V18.9831L18.6667 19.008L40 18.9582ZM40 17.2764H61.3333L61.3333 17.2664L40 17.2764ZM5 15.1032V-6.23014V15.1032ZM8 18.2137H29.3333H8ZM38 18.9582H16.6666V18.9745L16.6667 18.9909L38 18.9582ZM37.564 21.09L17.9668 12.6603L17.9637 12.6674L17.9606 12.6746L37.564 21.09ZM31.2 35.9148L11.5966 27.4995L11.5945 27.5043L31.2 35.9148ZM28.232 37.9139L28.2342 16.5805H28.232V37.9139ZM15.284 37.9139V16.5805H15.2393L15.1945 16.5807L15.284 37.9139ZM12.084 36.5431L27.4716 21.7671L27.4676 21.7629L12.084 36.5431ZM10 34.3741H-11.3333V42.9617L-5.38366 49.1543L10 34.3741ZM10 18.643L-5.35533 3.83336L-11.3333 10.0316V18.643H10ZM11.836 16.7393L-3.51695 1.92724L-3.51933 1.92971L11.836 16.7393ZM15.352 12.4364L-2.2117 0.327412L-2.21658 0.334505L15.352 12.4364ZM22 2.79373L39.5637 14.9027L39.5885 14.8667L39.6132 14.8306L22 2.79373ZM23.2 2.08246L21.4395 -19.1781L21.3885 -19.1739L21.3376 -19.1694L23.2 2.08246ZM24.504 2.57807L39.8537 -12.2374L39.8343 -12.2574L39.8149 -12.2774L24.504 2.57807ZM25.13 5.74668L5.23523 -1.95461L5.23014 -1.94147L5.22507 -1.92831L25.13 5.74668ZM22.07 13.6827L2.16507 6.00772L2.16015 6.02048L2.15525 6.03324L22.07 13.6827ZM22.998 15.1032L22.9752 36.4365L22.9866 36.4365H22.998V15.1032ZM35.906 15.1032V36.4365H35.906L35.906 15.1032ZM38 17.2723H59.3333V17.2625L59.3333 17.2526L38 17.2723ZM35.908 -8.30384H24.476V34.3628H35.908V-8.30384ZM44.3804 20.7059L46.8924 14.1924L7.0836 -1.16034L4.5716 5.35314L44.3804 20.7059ZM46.8802 14.2239C48.699 9.53001 49.137 4.42445 48.1666 -0.488061L6.30887 7.78108C5.71817 4.79097 5.98255 1.68116 7.09577 -1.19182L46.8802 14.2239ZM48.1666 -0.488061C47.1955 -5.40351 44.8341 -10.015 41.265 -13.7105L10.575 15.9302C8.34506 13.6214 6.90016 10.7741 6.30887 7.78108L48.1666 -0.488061ZM41.2866 -13.688C38.7614 -16.3103 35.6636 -18.3823 32.1827 -19.7069L17.0081 20.1701C14.5229 19.2244 12.3291 17.7518 10.5533 15.9078L41.2866 -13.688ZM32.1827 -19.7069C28.6991 -21.0326 24.9506 -21.5634 21.2113 -21.2421L24.8632 21.268C22.181 21.4984 19.496 21.1168 17.0081 20.1701L32.1827 -19.7069ZM21.2113 -21.2421C17.4729 -20.921 13.8852 -19.7606 10.6995 -17.8821L32.3708 18.8711C30.107 20.2059 27.5446 21.0376 24.8632 21.268L21.2113 -21.2421ZM10.6995 -17.8821C7.51679 -16.0055 4.831 -13.47 2.78864 -10.4994L37.9473 13.6731C36.5207 15.7482 34.6315 17.5381 32.3708 18.8711L10.6995 -17.8821ZM2.80138 -10.5179L-3.84461 -0.873167L31.2886 23.3364L37.9346 13.6916L2.80138 -10.5179ZM-3.85588 -0.856798C-4.18435 -0.379169 -4.54469 0.0608002 -4.93048 0.460649L25.7745 30.0858C27.8009 27.9855 29.6482 25.7218 31.2999 23.32L-3.85588 -0.856798ZM-4.93335 0.463623L-5.77535 1.33665L24.9353 30.9559L25.7773 30.0828L-4.93335 0.463623ZM29.2321 7.84522C26.9188 2.3687 22.7832 -2.29 17.3501 -5.19486L-2.76702 32.4315C-6.16013 30.6174 -8.67961 27.7439 -10.0721 24.4473L29.2321 7.84522ZM17.3501 -5.19486C11.8988 -8.1094 5.56747 -9.02019 -0.535127 -7.69922L8.49149 34.0017C4.63574 34.8363 0.644206 34.2554 -2.76702 32.4315L17.3501 -5.19486ZM-0.535127 -7.69922C-6.62674 -6.38062 -11.9354 -2.96307 -15.66 1.78263L17.9037 28.125C15.6278 31.0249 12.3363 33.1694 8.49149 34.0017L-0.535127 -7.69922ZM-15.66 1.78263C-19.3731 6.51355 -21.3266 12.3114 -21.3333 18.1957L21.3333 18.2442C21.3293 21.7486 20.168 25.24 17.9037 28.125L-15.66 1.78263ZM-21.3333 18.22V34.8095H21.3333V18.22H-21.3333ZM-21.3333 34.8337C-21.3266 40.718 -19.3731 46.5159 -15.66 51.2468L17.9037 24.9044C20.168 27.7895 21.3293 31.2809 21.3333 34.7853L-21.3333 34.8337ZM-15.66 51.2468C-11.9354 55.9925 -6.62676 59.4101 -0.535127 60.7287L8.49149 19.0278C12.3363 19.8601 15.6278 22.0046 17.9037 24.9044L-15.66 51.2468ZM-0.535127 60.7287C5.56747 62.0497 11.8988 61.1389 17.3501 58.2243L-2.76702 20.5979C0.644206 18.7741 4.63574 18.1932 8.49149 19.0278L-0.535127 60.7287ZM17.3501 58.2243C22.7833 55.3195 26.9188 50.6608 29.2321 45.1843L-10.0721 28.5822C-8.67961 25.2856 -6.16015 22.4121 -2.76702 20.5979L17.3501 58.2243ZM-5.78881 51.6789L-4.69081 52.8194L26.0468 23.2281L24.9488 22.0876L-5.78881 51.6789ZM-4.70902 52.8005C-2.15653 55.4584 0.920698 57.6094 4.36652 59.0897L21.2083 19.8877C23.0751 20.6897 24.7185 21.8449 26.065 23.2471L-4.70902 52.8005ZM4.36652 59.0897C7.81434 60.571 11.5396 61.3408 15.3203 61.3333L15.2357 18.6667C17.3072 18.6626 19.3395 19.0849 21.2083 19.8877L4.36652 59.0897ZM15.278 61.3333H28.24V18.6667H15.278V61.3333ZM28.2371 61.3333C33.5475 61.334 38.6817 59.7352 43.0136 56.8194L19.1893 21.4238C21.8174 19.6549 24.9638 18.6662 28.2429 18.6667L28.2371 61.3333ZM43.0136 56.8194C47.3362 53.9099 50.6427 49.8412 52.6408 45.1906L13.4392 28.3477C14.6107 25.6211 16.5705 23.1865 19.1893 21.4238L43.0136 56.8194ZM52.6487 45.1721L59.0087 30.3306L19.7913 13.5248L13.4313 28.3663L52.6487 45.1721ZM59.0306 30.2793C60.5654 26.6718 61.3423 22.8006 61.3333 18.9084L18.6667 19.008C18.6624 17.1607 19.0305 15.3127 19.7693 13.5761L59.0306 30.2793ZM61.3333 18.9582V17.2764H18.6666V18.9582H61.3333ZM61.3333 17.2664C61.3302 10.7338 58.8348 4.32131 54.1637 -0.526658L23.4386 29.0776C20.3018 25.8221 18.6687 21.5681 18.6666 17.2864L61.3333 17.2664ZM54.1637 -0.526658C49.4674 -5.40074 42.9303 -8.2932 35.9404 -8.30381L35.8756 34.3628C31.0566 34.3555 26.6005 32.3592 23.4386 29.0776L54.1637 -0.526658ZM5 16.5805C10.1165 16.5805 14.8603 18.6951 18.234 22.1932L-12.4767 51.8124C-7.97773 56.4771 -1.70784 59.2472 5 59.2472V16.5805ZM18.234 22.1932C21.5824 25.665 23.3333 30.2144 23.3333 34.8033H-19.3333C-19.3333 41.0422 -16.9503 47.1739 -12.4767 51.8124L18.234 22.1932ZM23.3333 34.8033V18.2137H-19.3333V34.8033H23.3333ZM23.3333 18.2137C23.3333 22.8027 21.5824 27.3521 18.234 30.8239L-12.4767 1.20463C-16.9503 5.8431 -19.3333 11.9749 -19.3333 18.2137H23.3333ZM18.234 30.8239C14.8603 34.3219 10.1165 36.4365 5 36.4365V-6.23014C-1.70781 -6.23014 -7.9777 -3.4601 -12.4767 1.20463L18.234 30.8239ZM5 36.4365C-0.116506 36.4365 -4.86028 34.3219 -8.23402 30.8239L22.4767 1.20463C17.9777 -3.4601 11.7078 -6.23014 5 -6.23014V36.4365ZM-8.23402 30.8239C-11.5824 27.3521 -13.3333 22.8026 -13.3333 18.2137H29.3333C29.3333 11.9749 26.9503 5.8431 22.4767 1.20463L-8.23402 30.8239ZM-13.3333 18.2137V34.8033H29.3333V18.2137H-13.3333ZM-13.3333 34.8033C-13.3333 30.2144 -11.5824 25.665 -8.23402 22.1932L22.4767 51.8124C26.9503 47.1739 29.3333 41.0422 29.3333 34.8033H-13.3333ZM-8.23402 22.1932C-4.8603 18.6951 -0.116541 16.5805 5 16.5805V59.2472C11.7078 59.2472 17.9777 56.4771 22.4767 51.8124L-8.23402 22.1932ZM16.6667 18.9909C16.6634 16.8332 17.0987 14.6784 17.9668 12.6603L57.1612 29.5196C58.6064 26.1599 59.3388 22.5522 59.3333 18.9255L16.6667 18.9909ZM17.9606 12.6746L11.5966 27.4995L50.8034 44.3301L57.1674 29.5053L17.9606 12.6746ZM11.5945 27.5043C12.9227 24.4083 15.1393 21.6596 18.0841 19.6762L41.9192 55.0644C45.9176 52.3714 48.9667 48.6115 50.8055 44.3253L11.5945 27.5043ZM18.0841 19.6762C21.0381 17.6865 24.5655 16.5801 28.2342 16.5805L28.2298 59.2472C33.1548 59.2477 37.9116 57.7637 41.9192 55.0644L18.0841 19.6762ZM28.232 16.5805H15.284V59.2472H28.232V16.5805ZM15.1945 16.5807C17.5344 16.5709 19.8336 17.044 21.9514 17.9512L5.15153 57.1712C8.36793 58.5489 11.8449 59.2618 15.3735 59.247L15.1945 16.5807ZM21.9514 17.9512C24.0672 18.8575 25.9362 20.1681 27.4716 21.7671L-3.30364 51.3192C-0.929537 53.7916 1.93709 55.7943 5.15153 57.1712L21.9514 17.9512ZM27.4676 21.7629L25.3836 19.5938L-5.38366 49.1543L-3.29966 51.3233L27.4676 21.7629ZM31.3333 34.3741V18.643H-11.3333V34.3741H31.3333ZM25.3553 33.4526L27.1913 31.549L-3.51933 1.92971L-5.35533 3.83336L25.3553 33.4526ZM27.1889 31.5514C29.2897 29.374 31.2059 27.0276 32.9206 24.5383L-2.21658 0.334505C-2.61299 0.909983 -3.04883 1.44202 -3.51695 1.92724L27.1889 31.5514ZM32.9157 24.5454L39.5637 14.9027L4.4363 -9.31527L-2.21169 0.327413L32.9157 24.5454ZM39.6132 14.8306C38.0218 17.1593 35.9159 19.1622 33.4019 20.6524L11.6465 -16.0512C8.71789 -14.3153 6.25428 -11.9758 4.38681 -9.24317L39.6132 14.8306ZM33.4019 20.6524C30.8847 22.1444 28.0382 23.0736 25.0624 23.3343L21.3376 -19.1694C17.886 -18.8669 14.5782 -17.7889 11.6465 -16.0512L33.4019 20.6524ZM24.9605 23.343C22.013 23.5871 19.0629 23.1644 16.3251 22.1238L31.4835 -17.7593C28.2956 -18.971 24.8649 -19.4618 21.4395 -19.1781L24.9605 23.343ZM16.3251 22.1238C13.5899 21.0843 11.1656 19.4666 9.19304 17.4336L39.8149 -12.2774C37.5023 -14.661 34.6689 -16.5487 31.4835 -17.7593L16.3251 22.1238ZM9.15429 17.3935C6.64974 14.7987 5.01674 11.5883 4.34726 8.19963L46.2049 -0.0698897C45.3128 -4.58525 43.1428 -8.82962 39.8537 -12.2374L9.15429 17.3935ZM4.34726 8.19963C3.67836 4.81384 3.97793 1.29338 5.23523 -1.95461L45.0247 13.448C46.6952 9.13268 47.0964 4.44256 46.2049 -0.0698897L4.34726 8.19963ZM5.22507 -1.92831L2.16507 6.00772L41.9749 21.3577L45.0349 13.4217L5.22507 -1.92831ZM2.15525 6.03324C0.882545 9.34663 0.420971 12.9005 0.787615 16.4008L43.2221 11.9558C43.5535 15.1196 43.1367 18.3332 41.9847 21.3322L2.15525 6.03324ZM0.787615 16.4008C1.15434 19.9018 2.34567 23.3069 4.31126 26.3156L40.0309 2.98002C41.8134 5.70854 42.8906 8.79129 43.2221 11.9558L0.787615 16.4008ZM4.31126 26.3156C6.2792 29.3279 8.98157 31.8753 12.2393 33.6693L32.8207 -3.70517C35.7901 -2.06998 38.246 0.247919 40.0309 2.98002L4.31126 26.3156ZM12.2393 33.6693C15.5017 35.4659 19.1904 36.4325 22.9752 36.4365L23.0208 -6.23013C26.4792 -6.22643 29.8465 -5.34299 32.8207 -3.70517L12.2393 33.6693ZM22.998 36.4365H35.906V-6.23014H22.998V36.4365ZM35.906 36.4365C30.5526 36.4365 25.581 34.2257 22.0377 30.5553L52.7342 0.921426C48.4056 -3.56241 42.3694 -6.23014 35.906 -6.23014L35.906 36.4365ZM22.0377 30.5553C18.5196 26.9111 16.6711 22.127 16.6667 17.2919L59.3333 17.2526C59.3278 11.2666 57.0376 5.37907 52.7342 0.921426L22.0377 30.5553ZM16.6666 17.2723V18.9582H59.3333V17.2723H16.6666Z" fill="url(#paint0_linear_581_6781)" mask="url(#path-1-inside-1_581_6781)"/>
<defs>
<linearGradient id="paint0_linear_581_6781" x1="-0.407221" y1="19.9999" x2="40.0325" y2="22.7515" gradientUnits="userSpaceOnUse">
<stop stop-color="#2980F9"/>
<stop offset="1" stop-color="#6B5FF8"/>
</linearGradient>
</defs>
</svg>
