<svg width="24" height="24" viewBox="0 0 24 24" fill="none" xmlns="http://www.w3.org/2000/svg">
<circle cx="14.8911" cy="5.85908" r="2.85981" stroke="#4F5974" stroke-width="1.3" stroke-linecap="round" stroke-linejoin="round"/>
<circle cx="9.10786" cy="5.85908" r="2.85981" stroke="#4F5974" stroke-width="1.3" stroke-linecap="round" stroke-linejoin="round"/>
<path d="M18.5038 20.1013C18.5038 17.3452 19.203 15.9179 19.9291 13.6299C20.222 12.7067 20.3413 11.2431 19.9291 10.5481C19.2437 9.39246 17.9141 8.71899 14.8916 8.71899C11.8692 8.71899 10.5396 9.39246 9.85419 10.5481C9.44197 11.2431 9.56126 12.7067 9.85419 13.6299C10.5803 15.9179 11.2795 17.3452 11.2795 20.1013" stroke="#4F5974" stroke-width="1.3" stroke-linecap="round"/>
<path d="M9.10894 8.71899C6.06955 8.71899 4.73246 9.39246 4.04318 10.5481C3.62865 11.2431 3.74861 12.7067 4.04318 13.6299C4.77333 15.9179 5.47652 17.3452 5.47652 20.1013" stroke="#4F5974" stroke-width="1.3" stroke-linecap="round"/>
</svg>
